<svg width="467" height="97" viewBox="0 0 467 97" xmlns="http://www.w3.org/2000/svg"><title>iam</title><g fill="#FFF" fill-rule="evenodd"><path d="M389.508 52.79c-.974.773-2.042 1.426-3.01 2.205-1.128.906-2.225 1.856-3.273 2.853-.92.873-2.002 1.252-2.71.806-.797-.504-1.272-1.99-1.027-3.022.166-.7.118-1.47.376-2.124.51-1.292 1.165-2.528 1.763-3.786.13-.273.273-.54.57-1.126-.577.193-.83.25-1.06.36-.763.36-1.506.765-2.277 1.105-1.08.476-2.213.843-3.265 1.373-2.21 1.113-4.397 2.272-6.562 3.468-1.564.864-3.016 1.957-4.634 2.687-1.49.67-2.625 1.67-3.768 2.77-.788.76-1.8 1.282-2.693 1.936-.326.24-2.394 1.93-3.428 1.6-.944-.305-1.587-3.713-1.443-4.564.235-1.405.728-2.765 1.1-4.147.09-.337.137-.686.267-1.36-1.854 1.04-3.46 1.923-5.048 2.834-1.74.998-3.467 2.02-5.2 3.034-.153.09-.313.174-.457.278-2.313 1.672-4.57 3.428-6.963 4.978-.896.58-2.096.913-3.167.94-1.357.034-1.76-1.278-2.078-2.34-.252-.843-.257-1.772-.29-2.667-.024-.573-.222-.8-.72-.52-1.83 1.03-3.63 2.115-5.47 3.13-.544.3-2.044.996-2.242 1.11-2.68 1.553-5.338 3.15-8.08 4.585-2.967 1.556-6.035 2.917-9.023 4.437-1.684.858-5.277 2.924-5.442 2.998-.682.308-4.407 2.17-7.863 3.377-3.456 1.208-6.63 1.76-7.356 1.816-2.503.195-5.154.51-7.268-1.24-.712-.59-1.013-1.792-1.296-2.774-1.066-3.697.665-6.578 2.96-9.166 1.284-1.448 2.82-2.672 4.26-3.98 1.943-1.767 3.855-3.576 5.87-5.26 1.476-1.23 3.11-2.268 4.645-3.43.857-.65 1.62-1.424 2.483-2.063 3.4-2.51 6.795-5.028 10.242-7.472 2.217-1.57 4.52-3.016 6.787-4.518l-.034-.434c-.57-.086-1.16-.113-1.706-.277-.36-.11-.85-.345-.958-.643-1.182-3.24-1.215-5.933 1.615-8.367 2.354-2.026 4.807-3.956 7.34-5.752 2.68-1.898 5.49-3.614 8.273-5.357 2.7-1.69 5.408-3.373 8.177-4.945 1.718-.975 7.93-4.37 9.304-5.115 2.824-1.535 5.695-2.984 8.562-4.44.768-.39 1.563-.76 2.387-1 2.185-.64 3.208.115 4.088 2.24.436 1.05.548 1.766-.318 2.418-.37.28-.962.257-1.445.398-.65.19-1.336.317-1.93.62-2.264 1.16-4.49 2.39-6.745 3.567-1.54.805-3.15 1.49-4.655 2.355-3.975 2.283-7.907 4.64-11.862 6.957-2.154 1.263-4.343 2.466-6.473 3.767-1.364.833-2.662 1.778-3.967 2.703-2.077 1.472-4.137 2.966-6.198 4.458-.156.113-.265.288-.506.556 1.386-.285 2.575-.642 3.787-.75 1.35-.12 2.746-.178 4.073.037 1.69.273 1.807 1.883 2.163 3.195.37 1.36-.73 2.027-1.535 2.613-1.762 1.282-3.677 2.352-5.515 3.533-3.145 2.02-6.328 3.988-9.402 6.114-2.352 1.628-4.54 3.493-6.84 5.2-2.738 2.033-5.517 4.006-8.268 6.02-.256.187-.41.51-.657.713-1.378 1.123-2.784 2.21-4.152 3.346-1.01.84-2.006 1.705-2.96 2.61-1.684 1.602-3.4 3.18-4.967 4.892-.84.917-1.398 2.093-2.083 3.152.094.128.188.255.28.383 1.174-.084 2.353-.12 3.52-.266.954-.118 1.918-.287 2.836-.572 2.143-.666 4.28-1.362 6.385-2.147 2.06-.77 4.104-1.6 6.1-2.523 1.687-.78 3.294-1.726 4.937-2.598.064-.036 5.8-3.032 6.536-3.47 1.694-1.01 3.46-1.9 5.204-2.822 1.206-.638 2.437-1.228 3.635-1.88 1.983-1.076 3.952-2.18 5.922-3.283 2.62-1.468 5.255-2.914 7.848-4.43 1.393-.813 2.724-1.736 4.062-2.64.874-.59 2.398-.405 3.05.43.196.254.365.53.537.803 1.014 1.617.845 2.52-.768 4.167-.327.333-.643.68-.953 1.028-.026.03.025.127.06.273.99-.62 6.415-4.36 11.69-7.35 3.05-1.73 6.88-3.4 9.255-3.48 1.1-.038 2.556.92 2.832 2.082.276 1.162-.662 2.975-1.084 3.67-.258.427-.576.817-.93 1.31.246.068.45.198.552.14.633-.356 1.24-.762 1.862-1.14 1.6-.97 3.122-2.118 4.82-2.863 3.068-1.348 5.837-3.27 8.936-4.53 1.8-.733 3.66-1.317 5.492-1.967.707-.25 1.408-.52 2.122-.748.788-.25 1.362-.06 2.204.32 1.723.775 1.732 2.31 2.513 3.725 1.242-.86 2.442-1.784 3.73-2.562 2.003-1.21 4.05-2.352 6.112-3.457.64-.343 2.375.22 2.797.757 1.226 1.56 1.184 3.578-.045 5.18-1.57 2.048-2.773 4.312-3.737 6.702-.083.206-.01.474-.01.948 1.123-.57 2.117-1.06 3.1-1.572.664-.346 2.613-1.57 3.3-2.035 2.89-1.953 5.832-3.83 8.75-5.738 1.585-1.035 3.17-2.075 4.738-3.126 1.665-1.114 4.916-4.092 5.434-4.527.772-.65 3.95-3.287 4.67-4.08.62-.677 5.366-4.98 5.775-5.46.36-.423.85-.73 1.254-1.12 1.526-1.473 2.984-3.024 4.586-4.407.784-.677 6.223-4.808 6.63-5.3.616-.747 16.07-11.993 16.426-12.226.438-.287 1.208-.776 1.378-.632.638.538 1.725.713 1.758 1.855.008.298.108.628.264.883.493.81.208 1.972-.562 2.584-2 1.59-4.003 3.182-5.936 4.853-2.06 1.78-4.08 3.616-6.052 5.497-2.29 2.188-4.552 4.41-6.75 6.692-1.984 2.056-3.87 4.207-5.788 6.326-.256.283-.45.623-.52 1.148.533-.226 1.072-.442 1.6-.682.886-.403 1.75-.862 2.652-1.222.63-.252 2.146.875 2.323 1.608.096.4.375.76.435 1.16.092.626.323 1.427.046 1.875-.788 1.28-1.71 2.47-3.024 3.34-2.31 1.525-4.553 3.154-6.8 4.773-1.655 1.193-3.297 2.408-4.898 3.672-1.154.91-1.75 1.64-1.64 1.775.92 1.148 2.154 4.128 1.64 5.506-.392 1.052-2.017 1.396-3.047 1.063-1.91-.617-3.21-2.51-3.29-4.53-.68.367-3.356 1.61-3.93 1.83-.272.105-.74.096-.944-.073-2.016-1.66-1.63-4.752-.193-6.253 2.096-2.19 4.11-4.46 6.11-6.738.533-.61.888-1.377 1.145-2.172-.96.786-1.924 1.568-2.88 2.36-1.706 1.413-3.39 2.854-5.115 4.245-1.72 1.386-3.424 2.802-5.23 4.066-2.606 1.822-5.303 3.512-7.95 5.275-2.13 1.42-4.21 2.92-6.386 4.268-.972.603-2.086 1.083-3.2 1.327-1.448.318-3.123-.964-3.396-2.717-.29-1.88-.242-3.81-.318-5.72-.033-.836-.005-1.673-.005-2.653-1.794 1.47-3.513 2.914-5.27 4.31zM135.768 70.89c.456.23 2.283-.182 3.912-1.064.81-.438 4.243-2.974 7.402-5.698 1.902-1.642 4.694-4.316 6.514-7.126 1.82-2.81 1.845-4.198 2-4.804.22-.853-.262-1.502-1.197-1.314-1.51.3-4.3 1.314-6.58 2.337-1.16.522-6.563 4.55-8.513 7.185-1.28 1.73-2.51 3.524-3.536 5.412-.675 1.244-.95 2.708-1.29 3.73-.033 1.463.58.988 1.288 1.344zm65.54-14.19c-1.193.362-2.197.544-3.09.963-1.79.838-3.594 1.69-5.253 2.753-1.744 1.12-7.224 5.495-8.29 6.43-.73.64-6.32-3.938-5.08-6.272.31-.583.382-1.295.665-2.31-.87.607-1.56.975-2.108 1.494-1.494 1.407-5.565 4.787-6.04 5.16-1.808 1.42-3.624 2.83-5.497 4.16-1.564 1.11-3.15 2.215-4.84 3.108-1.654.874-3.524 1.34-5.162.017-.757-.612-1.358-1.585-1.694-2.517-.678-1.874-.99-3.035-1.567-5.083-.436.375-.877.765-1.235 1.154-1.823 1.977-3.635 3.233-5.607 5.043-1.39 1.276-3.142 2.166-4.78 3.15-.866.52-1.823.896-2.755 1.3-2.162.938-4.465.636-6.26-.944-2.735-2.41-3.16-6.142-1.917-9.387.747-1.953 1.9-3.856 2.93-5.674.65-1.147 3.128-4.088 6.207-6.597 3.08-2.51 6.96-4.736 8.02-5.225 1.332-.613 2.756-1.04 4.163-1.475 2.14-.66 4.367-.06 5.755 1.475.586.648 1.88 2.53 2.023 5.224.142 2.694-.878 6.978-1.032 7.89-.29 1.72-.405 3.474-.547 5.217-.04.49.098.994.17 1.626.433-.076.815-.053 1.103-.208 3.34-1.798 6.36-4.066 9.333-6.407 2.1-1.654 4.244-3.258 6.302-4.963 1.822-1.51 8.758-7.206 10.504-8.413.724-.502 1.807-.25 2.386.494.57.73 1.24 1.437 1.585 2.27.232.56.18 1.433-.103 1.976-.92 1.76-3.115 5.677-3.198 6.198 1.12-.726 2.02-1.34 2.95-1.908 3.313-2.034 6.654-4.028 10.468-4.997 2.648-.673 4.784.59 5.885 3.093 1.063 2.417.588 4.65-.423 6.98 1.065-.163 6.76-5.418 8.964-7.058.722-.538 4.34-3.023 7.835-3.828 3.495-.804 5.244.173 5.976 1.028 2.01 2.346 1.91 4.98 1.64 7.754-.126 1.286-.033 2.6.03 3.896.014.256 2.55 2.83 2.858 3.11.635.583.506 1.33-.107 1.676-.742.417-1.58.79-2.556.274-.403-.213-1.397-.54-2.306-1.503-.91-.964-1.632-2.436-1.83-2.976-.803-2.197-1.213-4.494-.742-6.868.124-.626.094-1.283.152-2.185-.405.115-2.983.663-5.267 1.884-2.284 1.223-4.68 3.343-5.208 3.764-.573.457-11.347 10.46-11.732 10.64-1.26.592-2.12.065-2.76-1.167-1.893-3.647-.78-7.14.32-10.662.244-.776.46-1.56.76-2.574l-64.7 12.564M53.81 77.702c.948-.2 1.63-.3 2.854-.53 1.225-.23 3.343-1.2 3.933-1.2.73 0 1.16.508 1.567 1.2.407.69.112 1.453.112 1.453s-.697.7-1.974 1.214c-1.277.512-6.44 2.14-7.417 2.31-1.586.276-14.584.863-24.902 3.472C17.666 88.23 10.89 92.638 10.5 92.857c-2.112 1.184-4.2 2.412-6.286 3.64-1.63.958-2.708.65-3.553-1.022-.192-.382-.664-.724-.66-1.08.006-.523.17-1.262.538-1.523 1.32-.936 7.355-4.785 12.406-6.952 5.05-2.167 13.36-4.884 13.36-4.884s2.56-3.625 3.727-4.52c.23-.174 10.12-11.384 20.043-23.943 9.923-12.56 18.102-24.21 18.224-24.418.146-.248 1.94-3.02 2.89-3.97 1.192-1.193 1.49-2.837 2.044-4.303.07-.18 1.3-.085 1.886.15.428.172.7.77 1.01 1.2 1.375 1.907-.844 5.763-1.19 6.228-.955 1.287-9.87 13.897-18.94 25.65-9.073 11.75-21.384 26.193-21.383 26.294 1.34-.123 17.877-1.422 19.198-1.702zM73.3 12.417c1.586-.5 16.033-4.373 16.51-4.49.347-.085 11.48-3.006 12.402-3.31 2.102-.694 13.726-3.242 14.325-3.367 1.614-.334 3.235-.63 4.848-.964.83-.172 1.598-.02 2.193.55.5.482.273 1.926.24 1.992-.24.497-1.455.66-2.162.83-1.038.252-19.393 5.022-20.187 5.19-.68.146-7.923 2.316-10.882 3.16-2.843.81-5.673 1.667-8.518 2.467-.618.174-15.374 3.85-16.924 4.175-2.005.42-4 .892-6.003 1.313-.885.186-1.78.388-2.677.426-1.22.052-2.58.333-3.164.58-.585.244-1.588.16-1.872-.324-.217-.368-.372-.768-.6-1.06-1.09-1.378-.607-2.91 1.1-3.184 2.253-.36 4.53-.57 6.782-.95 1.122-.188 13.847-2.8 14.588-3.035z"/><path d="M353.388 39.218c-.363.61-2.3.14-2.47-.67-.32-1.54-.517-3.125-.556-4.696-.014-.567.574-1.15.838-1.633 3.06.914 4.727 2.704 4.846 5.81-1.077.073-2.042.15-2.658 1.188zM411.543 30.33c-.867.634-2.278-.21-2.56-1.388-.11-.457-.19-.928-.357-1.364-.45-1.18.183-2.2.542-3.206.27-.76 1.63-.758 2.42.06.887.924 1.72 1.967 1.58 3.643.428 1.225-.823 1.67-1.625 2.255z"/></g></svg>