<svg width="220" height="61" viewBox="0 0 220 61" xmlns="http://www.w3.org/2000/svg"><title>aftenposten</title><g fill="#000" fill-rule="evenodd"><path d="M219.2 42s-1.5 1.2-2.2 1c-.7 0-1.2-.8-1.2-1.7V23.7c0-3-3-5-5.5-6.2l-6 5c-.4-2.3-2.3-3.8-4.4-4.8l-6.5 5.2.5.4s1-.8 2-.7c.6.2 1 .5 1 1.4v23h7.5V24.4c0-.3 0-.6.2-1 .3-.4 1-.7 1.6-.7 1 0 1.8.4 1.8 1.4l.2 2.7v15c0 3 2 4.8 4.6 6l7-5-.6-.6M127 23.6c0-3-3-4.8-5.3-6l-6 5c-.5-2.4-2.4-4-4.5-5L105 23l.3.4s1-.8 2-.7c.7.2 1 .5 1 1.4v32c0 2-1 3.3-2.3 4.4 0 0 4 .2 7.7-3.5 0 0 2 2 5 1.3 0 0-2.6-.8-3-5v-9.7l6 4.2c2.4-1.3 5.4-3.2 5.4-6V23.5zm-9.3 19.8c-.8 0-1.4-.3-1.7-.8l-.2-.8V24.6c0-.4 0-.8.2-1 .3-.6 1-1 1.7-1 .8 0 1.8.5 1.8 1.5v17.7c0 1.3-1 1.7-1.8 1.7z"/><path d="M107.2 42s-1.5 1.2-2.2 1c-.7 0-1.2-.8-1.2-1.7V23.7c0-3-3-5-5.5-6.2l-6 5c-.4-2.3-2.3-3.8-4.4-4.8L81.4 23l.5.4s1-.8 2-.7c.6.2 1 .5 1 1.4v23h7.4V24.4c0-.3 0-.6.3-1s.8-.7 1.6-.7c1 0 1.8.4 1.8 1.4l.2 2.7v15c0 3 2 4.8 4.6 6l7-5-.6-.6M63.5 42s-1.5 1.2-2.2 1c-.7 0-1.2-.8-1.2-1.7V39 23h2.2v-2.5H60v-3.7c0-.6 0-2 .6-3.4.8-2 2.8-3.6 2.8-3.6l-.7-.7c-1.3 1.2-7 5.4-8.7 6.7-1.2 1-1.4 2-1.5 2.7v2h-2V23h2v18.8c0 3 2 4.7 4.6 6l7-5-.5-.7"/><path d="M61.2 7.8l-1.8 1c-1.4 1-2.6.7-4 0-1.2-.6-2.2-2-2.2-2l-11.8 7.7c-.5.3-1 .6-1.3 1.4-.3.7-.3 1.8-.4 2.4v2h-1.8V23h1.8v33h1.6v-5.2c0-2 1-3.7 3-4.5l1.7-.6c.7-.3 1.2-1 1.2-1.7V23H49v-2.5h-1.8v-8s1 .4 2.8 1.7c1.8 1.2 4-.3 4.8-.7 1-.5 7-5 7-5l-.6-.7M175.5 42s-1.6 1.2-2.2 1c-.7 0-1.2-.8-1.2-1.7V23h2v-2.5h-2v-3.7c0-.6 0-2 .6-3.4.8-2 2.8-3.6 2.8-3.6l-.8-.7c-1.2 1.2-7 5.4-8.7 6.7-1.2 1-1.5 2-1.5 2.7v2h-2V23h2v18.8c0 3 2 4.7 4.5 6l7-5-.5-.7"/><path d="M173 7.8l-1.7 1c-1.3 1-2.6.7-4 0-1.2-.6-2-2-2-2l-12 7.7c-.5.3-1 .6-1.3 1.4-.3.7-.4 1.8-.4 2.4V56h1.6v-5.2c0-2 1-3.7 3-4.5l1.7-.6c.7-.3 1-1 1-1.7V12.4l3 1.8c1.8 1.2 4-.3 4.8-.7l7-5-.7-.7M80.3 41c-2 1.2-4.3 1.8-6.5.8-1.7-.7-2-1.5-2-3.5v-1.9c0-.6.8-.6 1-.7 2-.3 4-1.2 5.4-2.8 1.6-1.7 4-6.8 1.5-11.8-.6-1.2-2.6-2.8-4-3.5l-10 5.2c-.5 0-.8.4-1 1-.4.4-.5 1.2-.5 1.6V39c.3 3.5 1.4 5.4 5.2 7l3 1.7 8.3-6-.4-.8zm-5.6-12.3c0 2-1 4.2-1.7 5-.6.7-.8.7-1.2 1V21.8c.6 0 2.8 2.2 3 6.7zM192.5 41c-2 1.2-4.3 1.8-6.4.8-1.7-.7-2-1.5-2-3.5v-1.9c0-.6 1-.6 1.2-.7 2-.3 3.7-1.2 5.3-2.8 1.6-1.7 3.8-6.8 1.4-11.8-.7-1.2-2.6-2.8-4-3.5 0 0-10 5-10 5.2-.5 0-.8.4-1 1-.4.4-.5 1.2-.5 1.6V39c.2 3.5 1.3 5.4 5 7l3 1.7 8.5-6-.5-.8zM187 28.6c0 2-1 4.2-1.7 5-.7.7-1 .7-1.3 1V21.8c.6 0 3 2.2 3 6.7zM149 39.7V25c0-2-1-2.8-2.6-3.6-.5-.3-3.8-2.6-4-3.8l-8.7 3.3c-1 .3-3 1.2-3.4 2.2-.5 1.2-.5 1.7-.5 2.2v15c0 2 1 3 2.5 3.7.5.3 3.8 2.7 4 4l8.7-3.5c1-.3 3-1.2 3.4-2.3.6-1.4.5-2 .5-2.5zM137.2 37V22c1 0 4 2 4 7V43.5c-.8 0-3.7-2-4-6.6zM19 14.8l.2-5.4c0-1.8 1.6-3 3.6-3 1.6 0 3.4 1 3.5 3v12h-7.2v-6.7zm-11 22c0-1 .4-1.5.8-1.7H9c.6-.3 1.2-.2 1.2-.2V36c0 2-1 2.3-2 2.2C8 37.8 8 37 8 37zm18.4-5.6c0 1.6-.2 4-2.2 6.3-2 2-4.2 2.8-6.3 3.4-2.6.6-6.5.5-8.6-1-.6-.3-1-.7-1-1 .5.2 1.5.2 2.2.2 3.8 0 8.5-1.4 8.5-6V25h7.4v6.3zm0 9.6c0 3.4 2.6 5.6 5.5 7l8.6-6s-1-2-1-1.7c0 .5 0 1-.2 1.3-.3.5-1 .8-2 .8-1 .2-2-.3-2-1.4V21 11c0-4.5 2.3-4.7 2.3-4.7v-.4c-5-.2-6-5.6-6-5.6h-.4c-1.3 2-5.2 3.6-9 4.3-7 1.4-12.2 1.2-12.2 8v21.4c-.3-.8-1.6-2-5-1.5-3.5.5-4.5 3-4.7 4-.5 1.3-.6 5.5 1.2 7.8 1.5 2 4.2 4.5 10.2 3.7 6-.7 10-4.3 11.8-6.2l3-3.5v2.8z"/></g></svg>