<svg width="808" height="123" viewBox="0 0 808 123" xmlns="http://www.w3.org/2000/svg"><title>aftonbladet</title><g fill="none" fill-rule="evenodd"><path d="M288.2 96V20.5" stroke="#000" stroke-width="15.1"/><path fill="#000" fill-rule="nonzero" d="M81 4.3v14l6.6 8v65.3H82v12.6l1 1 1.6.5 11 13H127V106l-6.4-7.3V81h16.8V66.3L125 51.7h-4V39L133 53.7H148V18L135.5 4.4"/><path d="M81 4.3v14l6.6 8v65.3H82v12.6l1 1 1.6.5 11 13H127V106l-6.4-7.3V81h16.8V66.3L125 51.7h-4V39L133 53.7H148V18L135.5 4.4z" stroke-width="7.4" stroke="#000"/><path fill="#C4C4C4" fill-rule="nonzero" d="M87.5 18.4v73.2H82v12.6h32.6V91.6h-6.3v-25H125v-15h-16.7V18.5H121V39h14.6V4.4H81v14"/><path stroke="#000" stroke-width="4.4" d="M87.5 18.4v73.2H82v12.6h32.6V91.6h-6.3v-25H125v-15h-16.7V18.5H121V39h14.6V4.4H81v14z"/><path fill="#000" fill-rule="nonzero" d="M144.3 4.3V39l12.3 14.6H168v38h-7.2v12.6l12.3 14.4H209V106l-7.8-9V42l10 11.6h14.6V18L213.3 4.4"/><path d="M144.3 4.3V39l12.3 14.6H168v38h-7.2v12.6l12.3 14.4H209V106l-7.8-9V42l10 11.6h14.6V18L213.3 4.4z" stroke-width="7.4" stroke="#000"/><path fill="#C4C4C4" fill-rule="nonzero" d="M215.5 4.3V39h-14.7V18.5h-10v73.2h8v12.6H163V91.6h7V18.4h-9.8V39h-13.7V4.4"/><path stroke="#000" stroke-width="4.4" d="M215.5 4.3V39h-14.7V18.5h-10v73.2h8v12.6H163V91.6h7V18.4h-9.8V39h-13.7V4.4z"/><path d="M280 6.8c-1.7-1.4-3.8-2.3-6.2-2.3h-39.2c-5 0-9 3.4-9 8.3v82.6c0 2.5 1 4.7 2.6 6.3l12.3 14.4c1.6 1.8 4 2.8 6.3 2.6h39.4c5 .2 9-3.8 9-8.8V27.2c0-2.6-1.2-5-3-6.6" fill="#000" fill-rule="nonzero"/><path d="M280 6.8c-1.7-1.4-3.8-2.3-6.2-2.3h-39.2c-5 0-9 3.4-9 8.3v82.6c0 2.5 1 4.7 2.6 6.3l12.3 14.4c1.6 1.8 4 2.8 6.3 2.6h39.4c5 .2 9-3.8 9-8.8V27.2c0-2.6-1.2-5-3-6.6L280 6.8z" stroke="#000" stroke-width="7.4"/><path d="M273.8 104.3c5 0 9-4 9-9v-82c0-4.8-4-8.8-9-8.8h-39.3c-5 0-9 4-9 9v82c0 4.8 4 8.8 9 8.8" fill="#C4C4C4" fill-rule="nonzero"/><path d="M273.8 104.3c5 0 9-4 9-9v-82c0-4.8-4-8.8-9-8.8h-39.3c-5 0-9 4-9 9v82c0 4.8 4 8.8 9 8.8h39.3z" stroke="#000" stroke-width="4.4"/><path d="M256.2 91c.8 0 4.4-3 4.4-6.5V23.7c0-3.6-3.6-6.6-4.4-6.6h-6c-.8 0-4.4 3-4.4 6.7v60.8c0 3.6 3.6 6.5 4.4 6.5" fill="#000" fill-rule="nonzero"/><path d="M256.2 91c.8 0 4.4-3 4.4-6.5V23.7c0-3.6-3.6-6.6-4.4-6.6h-6c-.8 0-4.4 3-4.4 6.7v60.8c0 3.6 3.6 6.5 4.4 6.5h6z" stroke="#000" stroke-width="4.4"/><path fill="#000" fill-rule="nonzero" d="M298.4 91.6V24l-5-5.6v-14h30l11.7 13V4.2h25l12.4 14v14h-5v86.5h-26.2l-10.8-13v13h-24.7l-12.3-15v-12"/><path stroke="#000" stroke-width="7.4" d="M298.4 91.6V24l-5-5.6v-14h30l11.7 13V4.2h25l12.4 14v14h-5v86.5h-26.2l-10.8-13v13h-24.7l-12.3-15v-12z"/><path fill="#C4C4C4" fill-rule="nonzero" d="M312.8 47v44.6h5.3v12.6h-24.6V91.6h5V18.4h-5v-14h30l17.2 58.4V18H335V4h25v14h-5v86.2h-26"/><path stroke="#000" stroke-width="4.4" d="M312.8 47v44.6h5.3v12.6h-24.6V91.6h5V18.4h-5v-14h30l17.2 58.4V18H335V4h25v14h-5v86.2h-26z"/><path d="M659.8 96.2V20.8M375.4 96.2V20.8" stroke="#000" stroke-width="15.1"/><path d="M452.3 93V18.3" stroke="#000" stroke-width=".8"/><path d="M371.7 4.5H426c2.6 0 5 1.2 6.6 3L445 21.3c1.4 1.6 2.3 3.7 2.3 6v33.3c0 5-4 9-9 9 5 0 9 4 9 9V110c0 5-4 9-9 9h-54L372 104.3V92h6.3V26.2l-6.6-7.7" fill="#000" fill-rule="nonzero"/><path d="M371.7 4.5H426c2.6 0 5 1.2 6.6 3L445 21.3c1.4 1.6 2.3 3.7 2.3 6v33.3c0 5-4 9-9 9 5 0 9 4 9 9V110c0 5-4 9-9 9h-54L372 104.3V92h6.3V26.2l-6.6-7.7v-14z" stroke="#000" stroke-width="7.4"/><path d="M435 46.3V13.5c0-5-4-9-9-9h-54.3v14h6.6V92H372v12.5h54c5 0 9-4 9-9V63.7" fill="#C4C4C4" fill-rule="nonzero"/><path d="M435 46.3V13.5c0-5-4-9-9-9h-54.3v14h6.6V92H372v12.5h54c5 0 9-4 9-9V46.3z" stroke="#000" stroke-width="4.4"/><path d="M433.6 65c0-5.5-3.6-10-9-10 5.4 0 9-4.5 9-10M483.8 4.3L496.3 18V33h-6V70h15L518 84.6V91l-4.7 2.5V119h-50.6L450 104.3V92l6-.2V25.4l-5.8-6.8V4.3" fill="#000" fill-rule="nonzero"/><path stroke="#000" stroke-width="7.4" d="M483.8 4.3L496.3 18V33h-6V70h15L518 84.6V91l-4.7 2.5V119h-50.6L450 104.3V92l6-.2V25.4l-5.8-6.8V4.3z"/><path fill="#C4C4C4" fill-rule="nonzero" d="M450.2 4.3v14.3h5.8V92h-6v12.4h55.4V70H490V90h-12V18.4h6v-14"/><path stroke="#000" stroke-width="4.4" d="M450.2 4.3v14.3h5.8V92h-6v12.4h55.4V70H490V90h-12V18.4h6v-14z"/><path d="M400 47.8h11c.7 0 4.4-3 4.4-6.6v-16c0-3.6-3.7-6.6-4.5-6.6h-11" fill="#000" fill-rule="nonzero"/><path d="M400 47.8h11c.7 0 4.4-3 4.4-6.6v-16c0-3.6-3.7-6.6-4.5-6.6h-11v29.2z" stroke="#000" stroke-width="4.4"/><path d="M415.4 68.4c0-3.7-3.7-6.6-4.5-6.6h-11V92h11c.7 0 4.4-3 4.4-6.6" fill="#000" fill-rule="nonzero"/><path d="M415.4 68.4c0-3.7-3.7-6.6-4.5-6.6h-11V92h11c.7 0 4.4-3 4.4-6.6v-17z" stroke="#000" stroke-width="4.4"/><path fill="#000" fill-rule="nonzero" d="M47.8 117.7v-5.5l5 5.5h30.8v-12h-4.3L65 17.5 53 3.7H23l-13 87H3.7v12.7L16 117.7"/><path d="M47.8 117.7v-5.5l5 5.5h30.8v-12h-4.3L65 17.5 53 3.7H23l-13 87H3.7v12.7L16 117.7z" stroke-width="7.4" stroke="#000"/><path fill="#C4C4C4" fill-rule="nonzero" d="M40.4 103.6v-13h6L44 71.7H32.2l-3 19h6.2v12.7H3.7V90.8H10l13-87H53L67 91.2h5.2v12.4"/><path stroke="#000" stroke-width="4.4" d="M40.4 90.5h6L44 71.8H32.2l-3 19h6.2v12.7H3.7V90.8H10l13-87H53L67 91.2h5.2v12.4H40.4z"/><path fill="#000" fill-rule="nonzero" d="M33.4 59.2H42l-4.4-24.6"/><path stroke="#000" stroke-width="4.4" d="M33.4 59.2H42l-4.4-24.6z"/><path fill="#000" fill-rule="nonzero" d="M553.2 118.8v-5.4l5 5.4h29v-12h-2.5l-14.2-88.2-12.3-13.8h-29.6l-13.2 87H509v12.8l2 2.2 3.8 2 8.8 10"/><path stroke="#000" stroke-width="7.4" d="M553.2 118.8v-5.4l5 5.4h29v-12h-2.5l-14.2-88.2-12.3-13.8h-29.6l-13.2 87H509v12.8l2 2.2 3.8 2 8.8 10z"/><path fill="#C4C4C4" fill-rule="nonzero" d="M546 104.7v-13h6L549.2 73h-11.6l-3 19h6.2v12.7h-32V92h6.4l13.2-87.2h29.6l14.2 87.6h5.2v12.3"/><path stroke="#000" stroke-width="4.4" d="M546 104.7v-13h6L549.2 73h-11.6l-3 19h6.2v12.7h-32V92h6.4l13.2-87.2h29.6l14.2 87.6h5.2v12.3z"/><path fill="#000" fill-rule="nonzero" d="M538.8 60.4h8.7L543 35.7"/><path stroke="#000" stroke-width="4.4" d="M538.8 60.4h8.7L543 35.7z"/><path fill="#000" fill-rule="nonzero" d="M714.7 4.5h-55.4v14l5.5 6.6v67h-4.5v12.4l12.3 14.5H727V87.6l-12.3-14.4v-11L702 47.7h-4.4V39l12.6 14.8H727V18.4"/><path stroke="#000" stroke-width="7.4" d="M714.7 4.5h-55.4v14l5.5 6.6v67h-4.5v12.4l12.3 14.5H727V87.6l-12.3-14.4v-11L702 47.7h-4.4V39l12.6 14.8H727V18.4z"/><path fill="#C4C4C4" fill-rule="nonzero" d="M714.7 104.4V73.2H698V92h-12.5V62.6h16.8v-15h-16.8v-29H698v20.7h16.7V4.6h-55.5v14h5.5V92h-4.4v12.4"/><path stroke="#000" stroke-width="4.4" d="M714.7 104.4V73.2H698V92h-12.5V62.6h16.8v-15h-16.8v-29H698v20.7h16.7V4.6h-55.5v14h5.5V92h-4.4v12.4z"/><path d="M584 4.5h51c2.5 0 4.7 1 6.4 2.7L653.8 21c1.6 1.6 2.5 3.8 2.5 6.3V110c0 5-4 9-9 9h-49.7l-7.3-8.7-3.7-1.5-3.7-4.4V92h6.2V24.7l-5.3-6.2" fill="#000" fill-rule="nonzero"/><path d="M584 4.5h51c2.5 0 4.7 1 6.4 2.7L653.8 21c1.6 1.6 2.5 3.8 2.5 6.3V110c0 5-4 9-9 9h-49.7l-7.3-8.7-3.7-1.5-3.7-4.4V92h6.2V24.7l-5.3-6.2v-14z" stroke="#000" stroke-width="7.4"/><path d="M644 13.5c0-5-4-9-9-9h-51v14h5.2V92H583v12.5h52c5 0 9-4 9-9" fill="#C4C4C4" fill-rule="nonzero"/><path d="M644 13.5c0-5-4-9-9-9h-51v14h5.2V92H583v12.5h52c5 0 9-4 9-9v-82z" stroke="#000" stroke-width="4.4"/><path d="M610 92h8.7c.6 0 4.3-3 4.3-6.7v-60c0-3.7-3.7-6.7-4.3-6.7H610" fill="#000" fill-rule="nonzero"/><path d="M610 92h8.7c.6 0 4.3-3 4.3-6.7v-60c0-3.7-3.7-6.7-4.3-6.7H610V92z" stroke="#000" stroke-width="4.4"/><path fill="#000" fill-rule="nonzero" d="M722.4 4.5v35l12.3 14.3H746v38h-7v12.6L751 119H787v-12.7l-8-9.2V42L789 54h14.7V18.4l-12.3-14"/><path d="M722.4 4.5v35l12.3 14.3H746v38h-7v12.6L751 119H787v-12.7l-8-9.2V42L789 54h14.7V18.4l-12.3-14z" stroke-width="7.4" stroke="#000"/><path fill="#C4C4C4" fill-rule="nonzero" d="M791.4 4.6v34.8h-14.7V18.6h-10V92h8v12.4h-35.8V92h7V18.5h-9.6v20.8h-14V4.6"/><path stroke="#000" stroke-width="4.4" d="M791.4 4.6v34.8h-14.7V18.6h-10V92h8v12.4h-35.8V92h7V18.5h-9.6v20.8h-14V4.6z"/></g></svg>