<svg width="340" height="49" viewBox="0 0 340 49" xmlns="http://www.w3.org/2000/svg"><title>coches</title><g fill-rule="nonzero" fill="none"><path d="M288 29.7c.5-1.6.8-3 .8-4.8 0-3-2-5.6-6-5.6-3.3 0-6 1.5-8.8 3.6l.8-3h-9.5l-6 26.6h8.6l4.3-17c.6-2.5 1-3.3 2-4.2 1-1 2-1.5 3.2-1.5 1.8 0 2.4 1.2 2.4 2.3 0 1-.6 2.8-1 4l-4.2 16.3h9.2l4-17zm13 .6c1-3.2 2.4-7 6.4-7 2.3 0 3.6 1.4 3.6 3.6 0 1.2-.4 2.7-.5 3.2H301zm7.8 8c-.5 1.5-1.5 5-5.7 5-2.2 0-4-1.5-4-4.4 0-1.8.5-3.4 1-5h18c.6-2 1-3.7 1-5.8 0-7.5-6.3-9-11.5-9-9 0-12.2 4.3-14 8-1.5 3-2.6 7.8-2.6 11 0 6.5 4.5 9 11.4 9 6.5 0 10-2.2 11.6-3.8 2-2 2.7-3.7 3.2-5.2h-8.4zm25.7-14.8h4.4l1-3.6h-4.5l1.8-7-10 1.6-1.2 5.2h-2.5l-1 3.6h2.8l-3 13.7c-.5 1.6-.8 3-.8 4.4 0 2 .7 4 3.7 5 1.2.5 2.5.6 3.7.6 2.3 0 4-.4 5.6-.8l1.2-4.7c-1 .2-1.7.4-2.6.4-1.2 0-2.6-.6-2.6-2.3 0-.7 0-1.3.6-3.5l3.3-12.7z" fill="#000100"/><path d="M257 38.6c-1.5 5.3-7 9.6-12.2 9.6-5.3 0-8.5-4.3-7-9.6 1.3-5.3 6.7-9.7 12-9.7s8.5 4.2 7 9.6" fill="#575757"/><path d="M22 35.6c0 1-.3 1.8-.8 2.8-1.3 2.5-3 3-4 3-.3 0-2.7 0-2.7-3.5 0-3.2 2.2-12 4-15.8 1.7-3.4 3.4-3.7 4.2-3.7.3 0 2.6 0 2.6 3.3 0 .8 0 1.5-.3 2.6h14.7V23c0-10-11.3-10.7-16.6-10.7-6.5 0-14.5 1.3-19 8.6-2.4 3.8-4 11-4 15 0 10.6 9.4 12 17.2 12 2.3 0 10.8 0 16.2-6 2.4-2.4 3.2-5 3.7-6.5H22zM64.3 29c-.8 3.4-1.7 6.5-3 9.2-.3.8-1.4 3.2-3.6 3.2-1 0-1.7-.5-2.2-1-.3-.6-.5-1.2-.5-2.5 0-2.4 1-7.4 1.6-10 1.5-6.2 3.2-9.2 6-9.2 2.6 0 2.6 2.4 2.6 3 .2 1.5-.3 4.2-1 7zm15 2c.5-2 .8-4 .8-6 0-10-8-12.7-17-12.7-6 0-11 1.3-14.4 3.7-5.4 4-8.4 12.4-8.4 19.4 0 3.3 1 6.6 3.2 9 2 2 6 3.6 13 3.6 5 0 10.7-.8 14.3-3 2.4-1.6 4.2-4 5.6-6.3 1.5-2.5 2.3-5 3-7.8zm25.3 4.6c-.2 1-.4 1.8-1 2.8-1.2 2.5-3 3-4 3-.2 0-2.6 0-2.6-3.5 0-3.2 2-12 4-15.8 1.6-3.4 3.3-3.7 4-3.7.4 0 2.7 0 2.7 3.3 0 .8 0 1.5-.3 2.6H122c.2-.7.2-1 .2-1.5 0-10-11.4-10.7-16.7-10.7-6.6 0-14.6 1.3-19 8.6-2.5 3.8-4 11-4 15 0 10.7 9.3 12 17 12 2.4 0 11 0 16.3-5.8 2.4-2.5 3.2-5.2 3.7-6.6h-15zM162.7 25l-5.2 21.5H142l5-20.8c.5-1.4 1-3 1-4 0-1.3-.6-2-2-2-2.7 0-3.5 2.8-4.3 5.8l-5.4 21h-15L131.8 0h15.5l-4 16.6c2.8-2 6.7-4.4 12-4.4s8 3 8 7.3c.2 2-.4 4-.8 5.5zm19.4 1c1-3.5 2-7.3 6-7.3 1.8 0 3 1 3 3 0 1.6-.4 3-.8 4.3h-8zm6 9.7c-.5 2.5-1.4 5.8-5.5 5.8-2 0-3.2-1.2-3.2-3.4 0-2 .5-4 1-6.4H204c.2-1 1-4.2 1-7.4 0-9.3-7.4-12-17-12-12 0-16.7 4.5-19.4 9.7-2 3.7-3.6 10.5-3.6 14.5 0 1.6 0 6 4 8.7 1.7 1.3 4 2 6.2 2.4 2 .3 4 .5 6 .5 6.8 0 13-1.4 17.3-5 3.4-2.7 4-5.4 4.6-7h-15v-.3zm34.8-.3l-4.2-1.5c-3-1.3-7.7-3.2-7.7-9.2 0-3.6 2-7.8 7-10.2 3.4-1.7 7.4-2.2 11.3-2.2 9.5 0 16 2 16 8v2l-13-.4v-1c0-2-1.3-2.7-3.2-2.7-2 0-3.4 1-3.4 2.4 0 2 2.3 2.7 5.4 3.6l4 1.3c1.2.4 2.8 1 4.2 2-3 2.5-5 5.7-6 9.3-1 3.3-.5 6.6.7 9.3-3.6 1.4-7.8 1.7-10.7 1.7-1 0-4.4 0-8-.6-6.5-1-9-3.4-9-7.6 0-1 0-1.7.2-2.6l13.8.3v1c0 3 2.5 3.3 3.6 3.3 2.5 0 3.7-1.5 3.7-2.8 0-2-1.8-2.6-5-3.6z" fill="#000100"/></g></svg>