<svg width="184" height="64" viewBox="0 0 184 64" class="hide-lt768 mrm" xmlns="http://www.w3.org/2000/svg">
<title>FINN.no</title><path d="M179.8 58V6c0-1-.8-2-2-2H66c-1 0-2 1-2 2v53.8h114c1 0 1.8-.8 1.8-1.8"/><path d="M22.5 4.2H6C5 4.2 4.2 5 4.2 6v52c0 1 .8 2 2 2H60V41.4C60 21 43.2 4.2 22.5 4.2"/><path fill="#fff" d="M178 0H66c-3.3 0-6 2.7-6 6v17.4C53.2 9.6 39 0 22.5 0H6C2.7 0 0 2.7 0 6v52c0 3.3 2.7 6 6 6h172c3.3 0 6-2.7 6-6V6c0-3.3-2.7-6-6-6m1.8 58c0 1-.8 2-2 2H64.2V6c0-1 1-2 2-2h112c1 0 2 1 2 2v52zM4.2 58V6C4.2 5 5 4.2 6 4.2h16.5C43 4.2 60 21 60 41.6V60H6c-1-.2-1.8-1-1.8-2"/><path fill="#fff" d="M110 21h-4c-.8 0-1.3.6-1.3 1.3v19.3c0 .7.5 1.2 1.2 1.2h4c.8 0 1.3-.5 1.3-1.2V22.3c0-.6-.6-1.2-1.2-1.2m-12 0H83c-.7 0-1.2.6-1.2 1.3v19.3c0 .7.5 1.2 1.2 1.2h4.2c.7 0 1.2-.5 1.2-1.2v-4H96c.8 0 1.3-.5 1.3-1.2v-3.2c0-.7-.5-1.2-1.2-1.2h-7.6v-5H98c.8 0 1.3-.4 1.3-1V22c0-.5-.6-1-1.2-1m63 0h-4.3c-.7 0-1.2.4-1.2 1V32l-6.6-10c-.4-.4-1-.7-1.4-.7h-3.2c-.7 0-1.2.6-1.2 1.3v19.3c0 .7.5 1.2 1.2 1.2h4.2c.7 0 1.2-.5 1.2-1.2v-9.4l6.5 9.8c.3.4.8.7 1.3.7h3.4c.7 0 1.2-.5 1.2-1.2V22.3c0-.6-.6-1.2-1.3-1.2m-25.5 0h-4.2c-.7 0-1.2.6-1.2 1.3v9.5l-6.5-10c-.3-.4-.8-.7-1.3-.7H119c-.7 0-1.2.6-1.2 1.3v19.3c0 .7.5 1.2 1.2 1.2h4.2c.7 0 1.2-.5 1.2-1.2v-9.4L131 42c.2.4.7.7 1.2.7h3.4c.7 0 1.2-.5 1.2-1.2V22.3c0-.6-.6-1.2-1.3-1.2"/></svg>
