<svg width="516" height="63" viewBox="0 0 516 63" xmlns="http://www.w3.org/2000/svg"><title>Group</title><g fill-rule="nonzero" fill="#000"><path d="M70.4 62.3H49.8l-5-23c-1-4.7-2-10-2.4-16-.3 5.4-1.3 10.3-2.3 15l-5.2 24H15.5L.8.6h18l5.6 25.2c1 3.8 1.5 9 2 13.5.5-4.6 1.3-9 2.3-13.2L35.3.8h17l6 24.6c1 3.6 2 8.4 2.6 13.5.7-5.3 1.4-10.2 2.4-14.2l5-24h17l-15 61.7zM96 62.3V.6h17v61.7H96zM128.3 62.3V.6h17v46.7h17v15.2h-34M174.3 62.3V.6h17v46.7h17v15.2h-34M255.6 62.3V38H237v24.3h-17V.6h17v22.6h18.6V.6h17v61.7h-17zM324.4 62.3L321 52h-19l-3 10.3h-16.8l20-61.7H322l21 61.7h-18.6zm-10-31c-1-3.6-2.2-7-2.7-10.7h-.3c-.5 3.6-1.8 7.6-3 11.7l-2 7H317l-2.5-8zM374 62.6c-3.8 0-11-.3-21.3-.3V.8c6-.3 17-.5 24.6-.5 13.5 0 21.8 5 21.8 16 0 5.6-3.2 10.4-7.8 13v.3c5.3 1.8 9 7.4 9 13.5 0 10.7-8.7 19.6-26.2 19.6zm.5-48.5c-2 0-3.3 0-4.8.4v10.2h3.6c5.3 0 8-2.3 8-5.8-.2-3.2-2.7-4.7-6.8-4.7zm-.5 23.2h-4.3v11.2l4.3.3c4.6 0 7.6-2 7.6-5.8.3-3.3-2.3-5.8-7.6-5.8zM411.8 62.3V.6h36V15h-19v8.7h18v14h-18v10h19v14.6h-36M494.7 62.3l-10.4-21c-2.3-5-4.6-9.8-6-14 .2 3.5.4 5.7.4 9.6v25h-16.3V.7h21.8l9 18.3c2.4 5.5 5.2 11 7.3 16-.5-4.4-.8-9-.8-12.8V.6H516v61.7h-21.3z"/></g></svg>