<svg id="Layer_1" data-name="Layer 1" xmlns="http://www.w3.org/2000/svg" viewBox="0 0 411.69 48.85"><defs><style>.cls-1{fill:#231f20;}</style></defs><title>nt2</title><path class="cls-1" d="M114.4 10a54 54 0 0 0-6-.3 54 54 0 0 0-5.8.2c-4.3.4-7.8 2-7.8 8.5V31c0 6.5 3.5 8.3 7.8 8.7a54.4 54.4 0 0 0 6 .3 54.4 54.4 0 0 0 5.8-.3c4.3-.4 7.8-2.2 7.8-8.6V18.7c0-6.5-3.5-8.2-7.8-8.7m3 22a3 3 0 0 1-2.7 3 61.4 61.4 0 0 1-6.2.3 61.5 61.5 0 0 1-6.2-.3 3 3 0 0 1-3-3v-7-7a3 3 0 0 1 3-3.3 61 61 0 0 1 6.2-.3 60.8 60.8 0 0 1 6.2.3 3 3 0 0 1 2.8 3.2v14M263 10h4.8v29.8H263zM340.2 10h4.7v29.8H340zM232.5 10v4.4h11.2v25.3h4.7V14.4h11.2V10h-27zM156.4 39.7l-6-9c3.2-.8 5.5-3 5.5-8v-4c0-6.6-3.6-8.3-8-8.8a54.4 54.4 0 0 0-5.8-.3 54.5 54.5 0 0 0-6 .2c-4.2.4-7.8 2-7.8 8.6v21h4.7v-8h12.3l5.4 8.2zm-23.3-13v-9a3 3 0 0 1 3-3 61.8 61.8 0 0 1 6.2-.4 61.7 61.7 0 0 1 6.2.3 3 3 0 0 1 2.8 3v5.6a3 3 0 0 1-2.8 3.3 61.4 61.4 0 0 1-6.2.3zM166 18.4c0-2 .6-3.5 2.8-3.7a47 47 0 0 1 5.6-.3 40.8 40.8 0 0 1 5.3.3 3 3 0 0 1 2.8 2.5h4.7c-.5-5.4-3.8-6.8-7.8-7.3a38.6 38.6 0 0 0-5-.3 43.3 43.3 0 0 0-5.3.2c-4.2.4-7.7 2.2-7.7 8.4s3.5 8 7.8 8.5a43.4 43.4 0 0 0 5.4.2h.2a61.7 61.7 0 0 1 6.2.3c2.2.2 3 1.6 3 3.7s-.8 3.7-3 4a67.7 67.7 0 0 1-12.4 0 3 3 0 0 1-2.8-2.6H161c.4 5.3 3.8 6.8 7.7 7.3a53.7 53.7 0 0 0 6 0 53.7 53.7 0 0 0 5.8 0c4.3-.6 8-2.5 8-8.8s-3.7-8-8-8.5a57.3 57.3 0 0 0-6-.2 47.6 47.6 0 0 1-5.7-.3c-2.2-.3-2.8-1.7-2.8-3.8"/><path class="cls-1" d="M263 10h4.8v29.8H263zM340.2 10h4.7v29.8H340zM83.8 10v23.7h-.2L68.3 10.6a1.2 1.2 0 0 0-1-.5h-4.8a1.2 1.2 0 0 0-1.2 1.2v28.5H66V16v-.2h.2l15.3 23.4a1.2 1.2 0 0 0 1 .5h4.8a1.2 1.2 0 0 0 1.2-1.2V10zM374 10v23.7h-.3l-15.4-23.2a1.2 1.2 0 0 0-1-.5h-4.8a1.2 1.2 0 0 0-1.2 1.2v28.5h4.7V16v-.2h.3l15.3 23.4a1.2 1.2 0 0 0 1 .5h4.8a1.2 1.2 0 0 0 1.2-1.2V10zM410.5 23.3H398V28h8.8a.3.3 0 0 1 .2.3V32a3 3 0 0 1-2.8 3 67.7 67.7 0 0 1-12.4 0 3 3 0 0 1-3-3v-7-7a3 3 0 0 1 3-3.3 67.7 67.7 0 0 1 12.4 0 3 3 0 0 1 2.8 2.5h4.7c-.5-5.3-4-6.8-7.8-7.2a76.7 76.7 0 0 0-12 0c-4.2.4-7.8 2-7.8 8.6v12.6c0 6.4 3.6 8 8 8.6a77.3 77.3 0 0 0 11.7 0c4.2-.5 7.7-2.2 7.7-8.6v-6.6a1.2 1.2 0 0 0-1.2-1.3M294 10a76.7 76.7 0 0 0-11.7 0c-4.3.4-8 2-8 8.5v21.2h4.8v-8.2h9a54.4 54.4 0 0 0 6-.3c4.3-.4 8-2.2 8-8.6v-4c0-6.5-3.7-8.2-8-8.7m3.2 13.3a3 3 0 0 1-2.8 3.2 61.3 61.3 0 0 1-6.2.3h-9v-9a3 3 0 0 1 2.7-3.2 67.7 67.7 0 0 1 12.4 0 3 3 0 0 1 2.8 3.2v5.5M326.7 10a76.7 76.7 0 0 0-11.8 0c-4.4.4-8 2-8 8.5v21.2h4.8v-8.2h9a54.4 54.4 0 0 0 5.8-.3c4.3-.4 8-2.2 8-8.6v-4c0-6.5-3.7-8.2-8-8.7m3.2 13.3a3 3 0 0 1-2.8 3.2 61.4 61.4 0 0 1-6.2.3h-9v-9a3 3 0 0 1 2.8-3.2 67.7 67.7 0 0 1 12.4 0 3 3 0 0 1 2.8 3.2v5.5M213 27a20 20 0 0 0-4-3l.6-.4c1.6-1.5 3.2-3.3 5.2-5.7s4.3-5 7.3-8h-6.3c-4 4-6.4 7.2-8.4 9.2a13.5 13.5 0 0 1-3.2 2.6 6.3 6.3 0 0 1-3 .7h-2.3V10H194v29.7h4.7V27.2h4a8 8 0 0 1 3.5.7 11.6 11.6 0 0 1 2.5 1.6c2.3 2 5 5.3 9.6 10h6.5c-5.6-5.6-9-9.7-12-12.5M47 2a3 3 0 0 0-1.8-1A186 186 0 0 0 24 0 186 186 0 0 0 2.6 1a3 3 0 0 0-2 1A3 3 0 0 0 0 4v42a3 3 0 0 0 1 2 3 3 0 0 0 2 .8h42a3 3 0 0 0 2-1 3 3 0 0 0 1-2V4a3 3 0 0 0-1-2m-.8 44A1.3 1.3 0 0 1 45 47H3A1.3 1.3 0 0 1 1.6 46V4A1.5 1.5 0 0 1 3 2.6a184.8 184.8 0 0 1 21-1 184.8 184.8 0 0 1 21 1A1.5 1.5 0 0 1 46 4z"/><path class="cls-1" d="M41 33.8l-8-8h-8.2v8l8 8.3a1.4 1.4 0 0 0 1 .5 1.4 1.4 0 0 0 1-.3 33.8 33.8 0 0 0 3.4-3 34.5 34.5 0 0 0 3-3.6 1.4 1.4 0 0 0 .4-.8 1.4 1.4 0 0 0-.4-1M23 25.7h-8l-8.3 8a1.4 1.4 0 0 0-.4 1 1.4 1.4 0 0 0 .3 1 33.5 33.5 0 0 0 3 3.4 33.7 33.7 0 0 0 3.5 3.2 1.4 1.4 0 0 0 1 .3 1.4 1.4 0 0 0 1-.4l8-8zM23 24v-8.2l-8-8.2a1.4 1.4 0 0 0-1-.4 1.4 1.4 0 0 0-1 .3 34.4 34.4 0 0 0-3.3 3 33.8 33.8 0 0 0-3 3.5 1.4 1.4 0 0 0-.4 1 1.4 1.4 0 0 0 .4 1l8.2 8zM41.3 14a34 34 0 0 0-3-3.4 33.7 33.7 0 0 0-3.6-3 1.4 1.4 0 0 0-.8-.3 1.4 1.4 0 0 0-1 .4l-8.2 8v8.4H33l8-8a1.4 1.4 0 0 0 .5-1 1.4 1.4 0 0 0-.2-1"/></svg>