<svg width="253" height="18" viewBox="0 0 253 18" xmlns="http://www.w3.org/2000/svg"><title>smg_small_2014_rgb</title><g fill="none" fill-rule="evenodd"><path d="M32.1 8.354l-2.46-.614c-1.135-.297-2.09-.756-2.09-1.77 0-1.294 1.113-1.816 2.3-1.816 1.39 0 2.458.452 3.083 1.665l2.203-.978C34.202 2.69 32.47 1.89 30.064 1.89c-2.785 0-5.154 1.58-5.154 4.284 0 2.54 1.54 3.41 3.456 3.906l2.425.576c1.115.326 1.98.823 1.98 1.89 0 1.332-1.37 1.89-2.827 1.89-1.622 0-2.934-.79-3.476-2.18l-2.42.95c.744 2.438 3.17 3.56 5.826 3.56 3.162 0 5.52-1.76 5.52-4.407 0-2.568-1.57-3.603-3.292-4.006M42.827 1.89c-3.153 0-5.758 1.9-5.758 5.308v4.617c0 3.22 2.72 4.968 5.858 4.968 2.74 0 5.393-1.54 5.393-4.746v-.436h-2.55v.19c0 1.874-1.535 2.61-2.842 2.61-1.708 0-3.193-.98-3.193-2.725V7.058c0-2.047 1.72-2.783 3.092-2.783 1.302 0 2.943.736 2.943 2.612v.187h2.55V6.64c0-3.206-2.753-4.75-5.493-4.75M58.946 8.014H53.18V2.138h-2.688v14.41h2.69V10.37h5.764v6.177h2.677V2.137h-2.677v5.877M64.8 16.547h2.69V2.137H64.8M79.258 8.935V8.9c1.468-.68 2.032-1.754 2.032-3.046 0-2.49-1.65-3.716-4.437-3.716h-6.178v14.41H77.2c2.39 0 4.545-1.432 4.545-4.14 0-1.626-.828-3.032-2.487-3.473zm-5.894-4.52h3.044c1.356 0 2.26.524 2.26 1.786 0 1.173-.78 1.862-2.143 1.862h-3.162V4.415zm3.363 9.843h-3.364v-3.94h3.39c1.495 0 2.323.606 2.323 1.92s-.913 2.02-2.35 2.02zM90.82 8.354l-2.46-.614c-1.132-.297-2.095-.756-2.095-1.77 0-1.294 1.12-1.816 2.295-1.816 1.393 0 2.47.452 3.09 1.665l2.204-.978C92.927 2.69 91.186 1.89 88.78 1.89c-2.778 0-5.14 1.58-5.14 4.284 0 2.54 1.53 3.41 3.448 3.906l2.428.576c1.107.326 1.976.823 1.976 1.89 0 1.332-1.382 1.89-2.83 1.89-1.614 0-2.924-.79-3.473-2.18l-2.42.95c.743 2.438 3.173 3.56 5.808 3.56 3.17 0 5.53-1.76 5.53-4.407 0-2.568-1.56-3.603-3.287-4.006M95.105 4.44h4.15v12.107h2.657V4.44h4.142V2.138h-10.95V4.44M110.34 10.37h6.482V8.024h-6.482v-3.52h7.303V2.139h-9.99v14.41h10.078V14.17h-7.39v-3.8M125.487 2.138h-5.618v14.41h5.64c2.843 0 5.642-1.9 5.642-5.316v-3.84c0-3.205-2.53-5.255-5.665-5.255m3.015 9.25c0 2.068-1.726 2.784-3.092 2.784h-2.86V4.506h2.75c1.704 0 3.202.978 3.202 2.72v4.162M0 18h17.467V.53H0" fill="#000"/><path d="M15.367 11.893c.04-.26.08-.542.08-.837 0-1.336-.65-3.066-1.324-4.52l-.57-1.165c-.377-.8-.748-1.455-.748-2.148 0-.493.28-.862.736-.862.583 0 .833.42.833 1.35h.977V2.086c-.583-.214-1.17-.347-2.152-.347-2.263 0-4.243.953-4.243 3.516 0 2.17 2.02 4.29 2.19 6.637H9.818C9.514 9.163 7.237 8.9 6.553 8.9c-2.128 0-3.618 1.454-3.618 3.522 0 2.444 1.598 4.39 5.038 4.39 3.278 0 6.228-1.584 7.168-4.052h2.325v-.867h-2.1zM7.56 15.835c-2.763 0-3.627-1.94-3.627-3.132 0-1.208.673-1.903 1.59-1.903s1.715.57 1.715 1.96h3.888c-.23 1.948-1.81 3.075-3.566 3.075z" fill="#FFFFFE"/><path fill="#000105" d="M145.078 10.577l-5.036-8.313-.05-.08-1.057-.002v14.46h.934V3.84l4.776 7.948.052.08h.7l4.81-7.996v12.77h.954V2.183h-1.1l-4.984 8.395M153.19 16.643h8.72v-.89h-7.765V9.57h6.24v-.894h-6.24V3.073h7.765v-.89h-8.72v14.46M172.836 12.017c0 1.722-1.024 3.735-3.91 3.735h-4.15V3.072l4.15.002c2.486 0 3.91 1.38 3.91 3.793v5.15zm-3.832-9.834h-5.18v14.46h5.18c2.92 0 4.806-1.847 4.806-4.705v-5.21c0-2.844-1.798-4.545-4.806-4.545zM175.903 16.645h.954V2.183h-.954M181.88 10.68l2.676-7.213 2.606 7.214h-5.283zm3.142-8.576h-.866l-5.33 14.312-.088.227h.976l1.863-5.09h5.882l1.823 4.98.04.11h1.013l-5.274-14.43-.04-.11zM200.792 10.186h4.102v2.585c0 2.028-1.512 3.24-4.05 3.24-2.646 0-4.288-1.56-4.288-4.072V6.946c0-2.47 1.682-4.13 4.19-4.13 2.535 0 4.05 1.218 4.05 3.26v.92h.95v-1.1c0-2.323-2.063-4.01-4.902-4.01-3.05 0-5.26 2.096-5.26 4.98v5.29c0 2.928 2.013 4.746 5.26 4.746 3.037 0 5.002-1.568 5.002-3.994V9.272h-5.054v.914M209.07 9.73V3.052h3.278c2.6 0 4.03 1.166 4.03 3.28 0 2.318-1.28 3.396-4.03 3.396h-3.278zm8.318-3.4c0-2.518-1.822-4.147-4.644-4.147h-4.628v14.46h.954v-6.04h3.274l4.614 6.04h1.18l-4.678-6.093c2.466-.286 3.928-1.845 3.928-4.22v.002zM228.634 11.86c0 2.482-1.72 4.15-4.29 4.15-2.645 0-4.285-1.56-4.285-4.072V7.146c0-2.59 1.682-4.33 4.186-4.33 2.75 0 4.388 1.455 4.388 3.89v5.154zm-4.29-9.974c-3.155 0-5.28 2.074-5.28 5.16v5.11c0 2.883 2.073 4.746 5.28 4.746 3.147 0 5.262-2.075 5.262-5.162V6.69c0-2.964-2.016-4.805-5.26-4.805zM240.892 12.022c.034 1.147-.304 2.12-.983 2.82-.742.766-1.835 1.167-3.17 1.167-1.26 0-4.19-.404-4.19-4.15V2.182h-.95v9.937c0 3.53 2.726 4.782 5.062 4.782 1.636 0 2.99-.5 3.915-1.445.83-.846 1.25-2.007 1.226-3.36V2.184h-.91v9.84M247.59 9.89h-2.9V3.052h3.595c2.072 0 3.576 1.413 3.576 3.36 0 2.873-2.324 3.476-4.27 3.476zm.754-7.708h-4.608v14.46h.954V10.76h3.156c3.04 0 5.005-1.708 5.005-4.348 0-2.528-1.81-4.23-4.506-4.23z"/></g></svg>