<svg xmlns="http://www.w3.org/2000/svg" width="358.5" height="37.8" viewBox="0 0.5 358.5 37.75"><g fill="#1D1D1B"><path d="M15 6l.5 5.4C13.8 8.8 11.4 7 8.7 7 6.3 7 4 8.6 4 11c0 2.4 2 3.2 4 3.7l1.7.5c2.3.7 4 1.3 5.2 2.3 1 1 1.8 2.7 1.8 4.7 0 5.6-4.2 8-9.3 8-2.7 0-5.3-.5-7.5-1.4v-6C1.7 25.5 4 28 8 28c3 0 5.2-1.7 5.2-4.4 0-2.4-1.8-3.4-4.3-4l-2-.6c-3-.8-6.3-2.2-6.3-7 0-4.7 4-7 8.6-7 2 0 4.4.4 6 1zM40.2 5.6c-1.3.4-2 1-2.5 2.6l-9.3 22.2h-.2L19.4 8.6C18.7 7 18.2 6 17 5.6h8.4c-1.4.3-2 1.3-1.4 3l5.2 13 5.4-13.2c.7-1.7 0-2.4-1-2.8h6.6zM57 10.8c-.6-1.6-1.7-3-3.7-3H48v7.7h4.6c1.6 0 3-1 3.5-2h.2v6c-.7-1-2-1.7-3.6-1.7H48V25c0 2.3 1.5 2.7 3.8 2.7 2.4 0 5-1 6.2-3.7l-.5 5.7H41.7c.8-.4 2-1.4 2-2.7V8.2c0-1.3-1.2-2.3-2-2.6H57v5.2zM83.7 5.6c-.8.3-2 1.3-2 2.6v22.3l-16-19V27c0 1.3 1 2.2 1.7 2.6H61c.8-.4 1.8-1.3 1.8-2.6V9.7c0-2-1.2-3.3-2.6-4v-.2h6l13 15V8.3C79 7 78 6 77 5.6h6.5zM101.4 6l.6 5.4C100.2 8.8 98 7 95.2 7c-2.6 0-4.8 1.5-4.8 4 0 2.4 2 3.2 4 3.7l1.7.5c2.3.7 4 1.3 5 2.3 1.4 1 2 2.7 2 4.7 0 5.6-4 8-9.2 8-2.7 0-5.3-.5-7.5-1.4v-6c1.5 2.6 4 5.2 7.8 5.2 3 0 5.2-1.7 5.2-4.4 0-2.4-1.8-3.4-4.3-4l-2-.6c-3-.8-6.4-2.2-6.4-7 0-4.7 4-7 8.6-7 2 0 4.5.4 6 1zM124.3 26.3c1 1.6 2.2 2.7 3.4 3.3H120c.6-.4.6-1.3-.2-2.3L112 16.5V27c0 1.3 1 2.3 2 2.6h-8c.7-.3 1.8-1.3 1.8-2.6V8.2c0-1.3-1-2.3-2-2.6h8c-.7.3-1.7 1.3-1.7 2.6v8l7.5-7.7c1.2-1.4 1.4-2.2.2-3h7.2c-1.3.6-2.6 1.5-4 3l-6.7 7 8 10.8zM148 26.6c.8 1.5 1.5 2.5 2.7 3H143c1-.4 1.3-1.4.8-2.8l-1.5-3.6h-8L133 27c-.6 1.4-.3 2 .6 2.6h-5.8c1-.4 1.8-1.5 2.3-2.7l9-22h.3l8.8 21.6zm-9.6-13l-3 7.3h6l-3-7.5zM168.4 5.5c7.3 0 14 3.5 14 11.7 0 7.7-5.5 12.5-12.8 12.5h-11c1-.4 2-1.4 2-2.7V8.2c0-1.3-1-2.3-2-2.6h9.8zm9.3 12.6c0-6.2-3.5-10.3-9.6-10.3-1.3 0-2.4 0-3.2.3v17.3c0 1.7 1.2 2.2 3.7 2.2 5.3 0 9.2-2.3 9.2-9.4zM202.3 26.6c.6 1.5 1.3 2.5 2.5 3h-7.6c1-.4 1.2-1.4.7-2.8l-1.6-3.6h-7.8L187 27c-.5 1.4 0 2 .8 2.6h-6c1.2-.4 2-1.5 2.4-2.7l9-22h.2l8.8 21.6zm-9.8-13l-3 7.3h6l-3-7.5zM226.4 6.4V12c-1.5-3-5.4-4.7-8.2-4.7-5.8 0-9 4.5-9 10.7 0 5.6 3.4 9.8 8.5 9.8 3 0 4.8-1 4.8-2.3V22c0-1.2-1.2-2.2-2-2.5h8c-.8.3-1.8 1.3-1.8 2.6v6c-2.8 1.4-5.8 2.3-9.4 2.3-7 0-13-5.7-13-12.6 0-7.7 6.2-12.7 13.8-12.7 2.8 0 6 .6 8.4 1.4zM249.4 23.4c0 4-3.2 6.3-7.3 6.3h-11.3c.8-.4 2-1.4 2-2.7V8.2c0-1.3-1.2-2.3-2-2.6h10c4.3 0 7.4 2.3 7.4 6 0 2.7-1.5 4.5-3.7 5.3 3 .8 5 3.4 5 6.4zm-10-7.4c4 0 4.7-2 4.7-4 0-3.4-2.3-4.4-5.3-4.4h-2V16h2.8zm5.4 7.4c0-2.5-1.2-5-4.8-5h-3.2v7c0 2 1.3 2.4 3 2.4 3 0 5-1.3 5-4.4zM252.2 29.7c1-.4 2-1.4 2-2.7V8.2c0-1.3-1-2.3-2-2.6h8c-.8.3-1.8 1.3-1.8 2.6v17c0 2 1 2.5 4 2.5 2.8 0 4.6-1 5.7-3.7h.2l-.7 5.7h-15.3zM289.6 26.6c.7 1.5 1.4 2.5 2.6 3h-7.6c1-.4 1.2-1.4.7-2.8l-1.5-3.6H276l-1.6 3.8c-.5 1.4 0 2 .8 2.6h-6c1.2-.4 2-1.5 2.4-2.7l9-22h.2l8.8 21.6zm-9.7-13l-3 7.3h6l-3-7.5zM303.4 5.5c7.2 0 14 3.5 14 11.7 0 7.7-5.5 12.5-12.8 12.5h-11c1-.4 2-1.4 2-2.7V8.2c0-1.3-1-2.3-2-2.6h9.8zm9.2 12.6c0-6.2-3.4-10.3-9.6-10.3-1.4 0-2.4 0-3.2.3v17.3c0 1.7 1 2.2 3.6 2.2 5.3 0 9.2-2.3 9.2-9.4zM335 10.8c-.4-1.6-1.5-3-3.5-3H326v7.7h4.8c1.7 0 3-1 3.5-2v6c-.5-1-1.8-1.7-3.5-1.7H326V25c0 2.3 1.8 2.7 4 2.7 2.5 0 5-1 6.3-3.7l-.5 5.7h-16c1-.4 2-1.4 2-2.7V8.2c0-1.3-1-2.3-2-2.6h15.4v5.2zM358.4 11.3C357.7 9 356.2 8 354 8h-3.4v19c0 1.3 1 2.3 2 2.6h-8c.7-.3 1.7-1.3 1.7-2.6V8H343c-2.2 0-3.7 1-4.4 3.3l.2-5.8h19.4l.3 5.8z"/></g></svg>