<svg width="764" height="388" viewBox="0 0 764 388" xmlns="http://www.w3.org/2000/svg"><title>willhaben</title><g fill-rule="nonzero" fill="none"><path d="M635.7 31H129C74.8 31 31 75.7 31 131c0 55.5 44 100.2 98.3 100.2h506.4c54.4 0 98.3-44.7 98.3-100 0-55.2-44-100.2-98-100.2z" fill-opacity="0" fill="#FFF"/><path d="M635.7 261.4H129C58.3 261.4.6 203 .6 131 .5 59.3 58.2 1 129 1h506.4C706.4.8 764 59.2 764 131c.2 72-57.5 130.4-128.3 130.4zM129 61.4c-37.2 0-67.7 31.3-67.7 70 0 38.4 30.5 70 67.8 70h506.4c37.3 0 67.8-31.3 67.8-70 0-38.4-30.5-70-67.8-70H129z" fill="#000"/><path d="M229.7 367.4c-13.7 20.8-42.4 26.4-64 12.2C144 365.4 137.2 337 151 316l60.7-93c13.7-21 42.2-26.5 64-12.3 21.8 14.2 45.2 18.5 31.8 39.4l-77.8 117.4z" fill="#000"/><g fill="#000"><path d="M195.4 161.3h-20.6l-5-23c-1-4.7-2-10-2.4-16-.3 5.4-1.3 10.3-2.3 15l-5.2 24h-19.3l-14.7-61.7h18l5.6 25.2c1 3.8 1.5 9 2 13.5.5-4.6 1.3-9 2.3-13.2l6.6-25.3h17l6 24.6c1 3.6 2 8.4 2.6 13.5.7-5.3 1.4-10.2 2.4-14.2l5-24h17l-15 61.7zM221 161.3V99.6h17v61.7h-17zM253.3 161.3V99.6h17v46.7h17v15.2h-34M299.3 161.3V99.6h17v46.7h17v15.2h-34M380.6 161.3V137H362v24.3h-17V99.6h17v22.6h18.6V99.6h17v61.7h-17zM449.4 161.3L446 151h-19l-3 10.3h-16.8l20-61.7H447l21 61.7h-18.6zm-10-31c-1-3.6-2.2-7-2.7-10.7h-.3c-.5 3.6-1.8 7.6-3 11.7l-2 7H442l-2.5-8zM499 161.6c-3.8 0-11-.3-21.3-.3V99.8c6-.3 17-.5 24.6-.5 13.5 0 21.8 5 21.8 16 0 5.6-3.2 10.4-7.8 13v.3c5.3 1.8 9 7.4 9 13.5 0 10.7-8.7 19.6-26.2 19.6zm.5-48.5c-2 0-3.3 0-4.8.4v10.2h3.6c5.3 0 8-2.3 8-5.8-.2-3.2-2.7-4.7-6.8-4.7zm-.5 23.2h-4.3v11.2l4.3.3c4.6 0 7.6-2 7.6-5.8.3-3.3-2.3-5.8-7.6-5.8zM536.8 161.3V99.6h36V114h-19v8.7h18v14h-18v10h19v14.6h-36M619.7 161.3l-10.4-21c-2.3-5-4.6-9.8-6-14 .2 3.5.4 5.7.4 9.6v25h-16.3V99.7h21.8l9 18.3c2.4 5.5 5.2 11 7.3 16-.5-4.4-.8-9-.8-12.8V99.6H641v61.7h-21.3z"/></g></g></svg>